<svg xmlns="http://www.w3.org/2000/svg" viewBox="0 53.9 612 684.7" enable-background="new 0 53.9 612 684.7"><g fill="#fff"><path d="M124.6 257.4v170.4h-39v-69.8h-26.7v69.7h-39.1v-170.3h39.1v66h26.7v-66h39zM223.3 256.2l25.7 171.6h-39.8l-3.2-27.2h-24.7l-3 27.2h-39.8l25.5-171.6h59.3zm-38.6 112.5h17.8l-8.7-77.4-9.1 77.4zM313.3 396.4c12.1 0 16.1-4.9 16.6-27.9l38.6 4.7c-.5 41.8-12.1 57.1-54.2 57.1-36.6 0-56.9-19.8-56.9-87.8s20.3-87.8 56.9-87.8c42 0 53.7 15.6 54.2 57.1l-38.6 4.7c-.5-23-4.7-27.9-16.6-27.9-12.4 0-16.1 18.8-16.1 53.7s3.5 54.1 16.1 54.1zM424.6 328.4l26.5-71h47.2l-36.6 73.9 39.3 96.7h-47.7l-18.3-62.5-10.1 19 1 43.5h-39.1v-170.6h39.1l-1.3 71zM573.2 380.3c0-14.1-7.7-17.8-25.2-22.5-20.8-5.2-41.3-13.8-41.3-52.2 0-34.9 14.1-51.7 53.4-51.7 44 0 49.2 21.5 49.7 56.6l-37.8 4.7c0-17.8-1.2-26.5-13.1-26.5-7.9 0-12.9 4.7-12.9 15.3 0 15.8 4.9 18.1 21.8 21.5 27.2 4.9 43.8 14.1 44.3 51.7 0 40.6-18.5 54.2-55.1 54.2-43.8 0-52.2-17.3-52.7-56.6l37.6-4.7c.5 19.5 2.7 26.5 15.8 26.5 10.5-.2 15.5-4.9 15.5-16.3z"/></g><g fill="#fff"><path d="M59.8 227.7h-39.3v-170.3h39.3v170.3zM122.9 227.7h-39.3v-170.3h54.9c26.2 0 50.4 6.7 50.4 55.4 0 30.2-9.4 43.5-19.8 50.9l23.7 64.3h-44.8l-16-59.4h-8.9v59.1h-.2zm10.1-94.4c8.9 0 16.1-1.7 16.1-20.5 0-18.3-7.2-20.3-16.1-20.3h-10.1v40.8h10.1zM248.3 227.7h-39.3v-170.3h39.3v170.3zM334.3 180.3c0-14.1-7.7-17.8-25.2-22.5-20.8-5.2-41.3-13.8-41.3-52.2 0-34.9 14.1-51.7 53.4-51.7 44 0 49.2 21.5 49.7 56.6l-37.8 4.7c0-17.8-1.2-26.5-13.1-26.5-7.9 0-12.9 4.7-12.9 15.3 0 15.8 4.9 18.1 21.8 21.5 27.2 4.9 43.8 14.1 44.3 51.7 0 40.6-18.5 54.2-55.1 54.2-43.8 0-52.2-17.3-52.7-56.6l37.6-4.7c.5 19.5 2.7 26.5 15.8 26.5 10.3-.3 15.5-5 15.5-16.3zM494.5 57.4v170.4h-39.1v-69.8h-26.7v69.7h-39.1v-170.3h39.1v66h26.7v-66h39.1z"/></g><path fill="#fff" d="M5.4 568.2c9.9 0 15.6-3.7 15.6-17.1v-43.5c0-22 7.9-48 48.7-48h8.4v33.4h-5.7c-9.6 0-16.6 3.7-16.6 16.8v41.5c0 12.4-4.2 25.2-14.6 33.1 10.6 7.9 14.6 20.8 14.6 32.9v41.8c0 13.1 6.9 16.8 16.6 16.8h5.7v33.4h-8.4c-40.8 0-48.7-26-48.7-48v-43.8c0-13.1-5.7-17.1-15.6-17.1h-5.4v-32.4h5.4zM424.1 601.4c-9.6 0-15.6 3.7-15.6 17.1v43.5c0 22-7.9 48-48.5 48h-8.4v-33.4h5.4c9.9 0 16.6-3.7 16.6-16.8v-41.5c0-12.4 4-25.2 14.6-33.1-10.9-7.9-14.6-20.5-14.6-32.9v-41.8c0-13.1-6.7-16.8-16.6-16.8h-5.4v-33.4h8.4c40.6 0 48.5 26 48.5 48v43.8c0 13.1 5.9 17.1 15.6 17.1h5.7v32.6h-5.7v-.4zM346.2 554.6c-5.4-8.7-12.1-14.8-20-18.1-12.9-5.4-33.9-2-52.4 9.6-6.4 4.2-8.2 5.4-13.8 9.6l-.5-.5c7.7-7.7 16.6-14.8 21.3-20.8 24-29.4 24.7-55.9 2.5-73.4-9.4-7.4-19.3-11.4-29.4-11.1-12.9.2-26.2 7.2-39.1 22-12.9-14.8-26-22-39.1-22-10.1-.2-20 3.7-29.4 11.1-22.5 17.6-21.8 44 2.5 73.4 4.9 5.9 14.3 13.8 22 21.5l-.5.5c-5.7-4.5-7.7-5.9-14.6-10.1-18.5-11.6-39.6-15.1-52.4-9.6-7.9 3.5-14.6 9.6-20 18.1-12.4 20-9.9 40.1 12.1 57.4-16.3 21.3-14.1 40.8 2.2 57.1 18.8 18.5 43.8 18.5 75.7-4 18.3-12.9 27.7-25.5 32.9-34.1h1s-8.2 46 6.2 69.5c6.4 10.6 14.8 19.8 24 28.2 3.7 3.5 12.9 9.6 12.9 9.6s15.8-16.6 16.1-16.6c-.2 0-23.7-12.1-36.1-32.1-11.1-18.1-8.9-50.2-8.4-58.6h1c5.4 8.7 14.8 21.3 32.9 34.1 31.9 22.5 57.1 22.7 75.7 4 16.3-16.3 18.8-36.1 2.2-57.1 22.4-17.5 24.8-37.8 12.5-57.6z"/></svg>