<svg xmlns="http://www.w3.org/2000/svg" viewBox="0 0 247.5 276.7" enable-background="new 0 0 247.5 276.7"><g fill="#5AABBC"><path d="M50.4 82.3v68.9h-15.8v-28.2h-10.8v28.2h-15.8v-68.9h15.8v26.7h10.8v-26.7h15.8zM90.3 81.8l10.4 69.4h-16.1l-1.3-11h-10l-1.2 11h-16.1l10.3-69.4h24zm-15.6 45.5h7.2l-3.5-31.3-3.7 31.3zM126.7 138.5c4.9 0 6.5-2 6.7-11.3l15.6 1.9c-.2 16.9-4.9 23.1-21.9 23.1-14.8 0-23-8-23-35.5s8.2-35.5 23-35.5c17 0 21.7 6.3 21.9 23.1l-15.6 1.9c-.2-9.3-1.9-11.3-6.7-11.3-5 0-6.5 7.6-6.5 21.7s1.4 21.9 6.5 21.9zM171.7 111l10.7-28.7h19.1l-14.8 29.9 15.9 39.1h-19.3l-7.4-25.3-4.1 7.7.4 17.6h-15.8v-69h15.8l-.5 28.7zM231.8 132c0-5.7-3.1-7.2-10.2-9.1-8.4-2.1-16.7-5.6-16.7-21.1 0-14.1 5.7-20.9 21.6-20.9 17.8 0 19.9 8.7 20.1 22.9l-15.3 1.9c0-7.2-.5-10.7-5.3-10.7-3.2 0-5.2 1.9-5.2 6.2 0 6.4 2 7.3 8.8 8.7 11 2 17.7 5.7 17.9 20.9 0 16.4-7.5 21.9-22.3 21.9-17.7 0-21.1-7-21.3-22.9l15.2-1.9c.2 7.9 1.1 10.7 6.4 10.7 4.3-.1 6.3-2 6.3-6.6z"/></g><g fill="#192E59"><path d="M24.2 70.3h-15.9v-68.9h15.9v68.9zM49.7 70.3h-15.9v-68.9h22.2c10.6 0 20.4 2.7 20.4 22.4 0 12.2-3.8 17.6-8 20.6l9.6 26h-18.1l-6.5-24h-3.6v23.9zm4.1-38.2c3.6 0 6.5-.7 6.5-8.3 0-7.4-2.9-8.2-6.5-8.2h-4.1v16.5h4.1zM100.4 70.3h-15.9v-68.9h15.9v68.9zM135.2 51.1c0-5.7-3.1-7.2-10.2-9.1-8.4-2.1-16.7-5.6-16.7-21.1 0-14.1 5.7-20.9 21.6-20.9 17.8 0 19.9 8.7 20.1 22.9l-15.3 1.9c0-7.2-.5-10.7-5.3-10.7-3.2 0-5.2 1.9-5.2 6.2 0 6.4 2 7.3 8.8 8.7 11 2 17.7 5.7 17.9 20.9 0 16.4-7.5 21.9-22.3 21.9-17.7 0-21.1-7-21.3-22.9l15.2-1.9c.2 7.9 1.1 10.7 6.4 10.7 4.2-.1 6.3-2 6.3-6.6zM200 1.4v68.9h-15.8v-28.2h-10.8v28.2h-15.8v-68.9h15.8v26.7h10.8v-26.7h15.8z"/></g><path fill="#5AABBC" d="M2.2 208c4 0 6.3-1.5 6.3-6.9v-17.6c0-8.9 3.2-19.4 19.7-19.4h3.4v13.5h-2.3c-3.9 0-6.7 1.5-6.7 6.8v16.8c0 5-1.7 10.2-5.9 13.4 4.3 3.2 5.9 8.4 5.9 13.3v16.9c0 5.3 2.8 6.8 6.7 6.8h2.3v13.5h-3.4c-16.5 0-19.7-10.5-19.7-19.4v-17.7c0-5.3-2.3-6.9-6.3-6.9h-2.2v-13.1h2.2zM171.5 221.4c-3.9 0-6.3 1.5-6.3 6.9v17.6c0 8.9-3.2 19.4-19.6 19.4h-3.4v-13.5h2.2c4 0 6.7-1.5 6.7-6.8v-16.8c0-5 1.6-10.2 5.9-13.4-4.4-3.2-5.9-8.3-5.9-13.3v-16.9c0-5.3-2.7-6.8-6.7-6.8h-2.2v-13.5h3.4c16.4 0 19.6 10.5 19.6 19.4v17.7c0 5.3 2.4 6.9 6.3 6.9h2.3v13.2h-2.3z"/><path fill="#192E59" d="M140 202.5c-2.2-3.5-4.9-6-8.1-7.3-5.2-2.2-13.7-.8-21.2 3.9-2.6 1.7-3.3 2.2-5.6 3.9l-.2-.2c3.1-3.1 6.7-6 8.6-8.4 9.7-11.9 10-22.6 1-29.7-3.8-3-7.8-4.6-11.9-4.5-5.2.1-10.6 2.9-15.8 8.9-5.2-6-10.5-8.9-15.8-8.9-4.1-.1-8.1 1.5-11.9 4.5-9.1 7.1-8.8 17.8 1 29.7 2 2.4 5.8 5.6 8.9 8.7l-.2.2c-2.3-1.8-3.1-2.4-5.9-4.1-7.5-4.7-16-6.1-21.2-3.9-3.2 1.4-5.9 3.9-8.1 7.3-5 8.1-4 16.2 4.9 23.2-6.6 8.6-5.7 16.5.9 23.1 7.6 7.5 17.7 7.5 30.6-1.6 7.4-5.2 11.2-10.3 13.3-13.8h.4s-3.3 18.6 2.5 28.1c2.6 4.3 6 8 9.7 11.4 1.5 1.4 5.2 3.9 5.2 3.9s6.4-6.7 6.5-6.7c-.1 0-9.6-4.9-14.6-13-4.5-7.3-3.6-20.3-3.4-23.7h.4c2.2 3.5 6 8.6 13.3 13.8 12.9 9.1 23.1 9.2 30.6 1.6 6.6-6.6 7.6-14.6.9-23.1 9.2-7.1 10.2-15.3 5.2-23.3z"/></svg>