<svg xmlns="http://www.w3.org/2000/svg" viewBox="0 0 173.8 116.6" enable-background="new 0 0 173.8 116.6"><path fill="#fff" d="M2.2 47.9c4 0 6.3-1.5 6.3-6.9v-17.6c-.1-8.8 3.2-19.4 19.6-19.4h3.4v13.5h-2.3c-3.9 0-6.7 1.5-6.7 6.8v16.8c0 5-1.7 10.2-5.9 13.4 4.3 3.2 5.9 8.4 5.9 13.3v16.9c0 5.3 2.8 6.8 6.7 6.8h2.3v13.5h-3.4c-16.5 0-19.7-10.5-19.7-19.4v-17.6c0-5.3-2.3-6.9-6.3-6.9h-2.1v-13.2h2.2zM171.5 61.3c-3.9 0-6.3 1.5-6.3 6.9v17.6c0 8.9-3.2 19.4-19.6 19.4h-3.4v-13.6h2.2c4 0 6.7-1.5 6.7-6.8v-16.8c0-5 1.6-10.2 5.9-13.4-4.4-3.2-5.9-8.3-5.9-13.3v-16.9c0-5.3-2.7-6.8-6.7-6.8h-2.2v-13.6h3.4c16.4 0 19.6 10.5 19.6 19.4v17.7c0 5.3 2.4 6.9 6.3 6.9h2.3v13.2h-2.3zM140 42.4c-2.2-3.5-4.9-6-8.1-7.3-5.2-2.2-13.7-.8-21.2 3.9-2.6 1.7-3.3 2.2-5.6 3.9l-.2-.2c3.1-3.1 6.7-6 8.6-8.4 9.7-11.9 10-22.6 1-29.7-3.8-3-7.8-4.6-11.9-4.5-5.3 0-10.6 2.8-15.8 8.8-5.2-6-10.5-8.8-15.8-8.9-4-.1-8.1 1.5-11.9 4.5-9.1 7.1-8.8 17.8 1 29.7 2 2.4 5.8 5.6 8.9 8.7l-.2.2c-2.3-1.8-3.1-2.4-5.9-4.1-7.5-4.7-16-6.1-21.2-3.9-3.2 1.4-5.9 3.9-8.1 7.3-5 8.1-4 16.2 4.9 23.2-6.6 8.6-5.7 16.5.9 23.1 7.6 7.5 17.7 7.5 30.6-1.6 7.4-5.2 11.2-10.3 13.3-13.8h.4s-3.3 18.6 2.5 28.1c2.6 4.3 6 8 9.7 11.4 1.5 1.4 5.2 3.9 5.2 3.9s6.4-6.7 6.5-6.7c-.1 0-9.6-4.9-14.6-13-4.5-7.3-3.6-20.3-3.4-23.7h.4c2.2 3.5 6 8.6 13.3 13.8 12.9 9.1 23.1 9.2 30.6 1.6 6.6-6.6 7.6-14.6.9-23.1 9.2-7 10.2-15.2 5.2-23.2z"/></svg>