<?xml version="1.0" encoding="utf-8"?>
<!-- Generator: Adobe Illustrator 18.0.0, SVG Export Plug-In . SVG Version: 6.00 Build 0)  -->
<!DOCTYPE svg PUBLIC "-//W3C//DTD SVG 1.1//EN" "http://www.w3.org/Graphics/SVG/1.1/DTD/svg11.dtd">
<svg version="1.1" id="Layer_1" xmlns="http://www.w3.org/2000/svg" xmlns:xlink="http://www.w3.org/1999/xlink" x="0px" y="0px"
	 viewBox="0 0 247.5 276.7" enable-background="new 0 0 247.5 276.7" xml:space="preserve">
<g>
	<path fill="#5AABBC" d="M50.4,82.3v68.9H34.6V123H23.8v28.2H8V82.3h15.8V109h10.8V82.3H50.4z"/>
	<path fill="#5AABBC" d="M90.3,81.8l10.4,69.4H84.6l-1.3-11h-10l-1.2,11H56l10.3-69.4H90.3z M74.7,127.3h7.2L78.4,96L74.7,127.3z"/>
	<path fill="#5AABBC" d="M126.7,138.5c4.9,0,6.5-2,6.7-11.3l15.6,1.9c-0.2,16.9-4.9,23.1-21.9,23.1c-14.8,0-23-8-23-35.5
		s8.2-35.5,23-35.5c17,0,21.7,6.3,21.9,23.1l-15.6,1.9c-0.2-9.3-1.9-11.3-6.7-11.3c-5,0-6.5,7.6-6.5,21.7S121.6,138.5,126.7,138.5z"
		/>
	<path fill="#5AABBC" d="M171.7,111l10.7-28.7h19.1l-14.8,29.9l15.9,39.1h-19.3l-7.4-25.3l-4.1,7.7l0.4,17.6h-15.8V82.3h15.8
		L171.7,111z"/>
	<path fill="#5AABBC" d="M231.8,132c0-5.7-3.1-7.2-10.2-9.1c-8.4-2.1-16.7-5.6-16.7-21.1c0-14.1,5.7-20.9,21.6-20.9
		c17.8,0,19.9,8.7,20.1,22.9l-15.3,1.9c0-7.2-0.5-10.7-5.3-10.7c-3.2,0-5.2,1.9-5.2,6.2c0,6.4,2,7.3,8.8,8.7
		c11,2,17.7,5.7,17.9,20.9c0,16.4-7.5,21.9-22.3,21.9c-17.7,0-21.1-7-21.3-22.9l15.2-1.9c0.2,7.9,1.1,10.7,6.4,10.7
		C229.8,138.5,231.8,136.6,231.8,132z"/>
</g>
<g>
	<path fill="#192E59" d="M24.2,70.3H8.3V1.4h15.9V70.3z"/>
	<path fill="#192E59" d="M49.7,70.3H33.8V1.4H56c10.6,0,20.4,2.7,20.4,22.4c0,12.2-3.8,17.6-8,20.6l9.6,26H59.9l-6.5-24h-3.6V70.3z
		 M53.8,32.1c3.6,0,6.5-0.7,6.5-8.3c0-7.4-2.9-8.2-6.5-8.2h-4.1v16.5H53.8z"/>
	<path fill="#192E59" d="M100.4,70.3H84.5V1.4h15.9V70.3z"/>
	<path fill="#192E59" d="M135.2,51.1c0-5.7-3.1-7.2-10.2-9.1c-8.4-2.1-16.7-5.6-16.7-21.1c0-14.1,5.7-20.9,21.6-20.9
		c17.8,0,19.9,8.7,20.1,22.9l-15.3,1.9c0-7.2-0.5-10.7-5.3-10.7c-3.2,0-5.2,1.9-5.2,6.2c0,6.4,2,7.3,8.8,8.7
		c11,2,17.7,5.7,17.9,20.9c0,16.4-7.5,21.9-22.3,21.9c-17.7,0-21.1-7-21.3-22.9l15.2-1.9c0.2,7.9,1.1,10.7,6.4,10.7
		C133.1,57.6,135.2,55.7,135.2,51.1z"/>
	<path fill="#192E59" d="M200,1.4v68.9h-15.8V42.1h-10.8v28.2h-15.8V1.4h15.8v26.7h10.8V1.4H200z"/>
</g>
<g>
	<g>
		<path fill="#5AABBC" d="M2.2,208c4,0,6.3-1.5,6.3-6.9v-17.6c0-8.9,3.2-19.4,19.7-19.4h3.4v13.5h-2.3c-3.9,0-6.7,1.5-6.7,6.8v16.8
			c0,5-1.7,10.2-5.9,13.4c4.3,3.2,5.9,8.4,5.9,13.3v16.9c0,5.3,2.8,6.8,6.7,6.8h2.3v13.5h-3.4c-16.5,0-19.7-10.5-19.7-19.4v-17.7
			c0-5.3-2.3-6.9-6.3-6.9H0V208H2.2z"/>
	</g>
</g>
<g>
	<g>
		<path fill="#5AABBC" d="M171.5,221.4c-3.9,0-6.3,1.5-6.3,6.9v17.6c0,8.9-3.2,19.4-19.6,19.4h-3.4v-13.5h2.2c4,0,6.7-1.5,6.7-6.8
			v-16.8c0-5,1.6-10.2,5.9-13.4c-4.4-3.2-5.9-8.3-5.9-13.3v-16.9c0-5.3-2.7-6.8-6.7-6.8h-2.2v-13.5h3.4c16.4,0,19.6,10.5,19.6,19.4
			v17.7c0,5.3,2.4,6.9,6.3,6.9h2.3v13.2H171.5z"/>
	</g>
</g>
<g>
	<path fill="#192E59" d="M140,202.5c-2.2-3.5-4.9-6-8.1-7.3c-5.2-2.2-13.7-0.8-21.2,3.9c-2.6,1.7-3.3,2.2-5.6,3.9l-0.2-0.2
		c3.1-3.1,6.7-6,8.6-8.4c9.7-11.9,10-22.6,1-29.7c-3.8-3-7.8-4.6-11.9-4.5c-5.2,0.1-10.6,2.9-15.8,8.9c-5.2-6-10.5-8.9-15.8-8.9
		c-4.1-0.1-8.1,1.5-11.9,4.5c-9.1,7.1-8.8,17.8,1,29.7c2,2.4,5.8,5.6,8.9,8.7l-0.2,0.2c-2.3-1.8-3.1-2.4-5.9-4.1
		c-7.5-4.7-16-6.1-21.2-3.9c-3.2,1.4-5.9,3.9-8.1,7.3c-5,8.1-4,16.2,4.9,23.2c-6.6,8.6-5.7,16.5,0.9,23.1c7.6,7.5,17.7,7.5,30.6-1.6
		c7.4-5.2,11.2-10.3,13.3-13.8h0.4c0,0-3.3,18.6,2.5,28.1c2.6,4.3,6,8,9.7,11.4c1.5,1.4,5.2,3.9,5.2,3.9c0,0,6.4-6.7,6.5-6.7
		c-0.1,0-9.6-4.9-14.6-13c-4.5-7.3-3.6-20.3-3.4-23.7h0.4c2.2,3.5,6,8.6,13.3,13.8c12.9,9.1,23.1,9.2,30.6,1.6
		c6.6-6.6,7.6-14.6,0.9-23.1C144,218.7,145,210.5,140,202.5z"/>
</g>
</svg>
