<?xml version="1.0" encoding="utf-8"?>
<!-- Generator: Adobe Illustrator 18.0.0, SVG Export Plug-In . SVG Version: 6.00 Build 0)  -->
<!DOCTYPE svg PUBLIC "-//W3C//DTD SVG 1.1//EN" "http://www.w3.org/Graphics/SVG/1.1/DTD/svg11.dtd">
<svg version="1.1" id="Layer_1" xmlns="http://www.w3.org/2000/svg" xmlns:xlink="http://www.w3.org/1999/xlink" x="0px" y="0px"
	 viewBox="0 0 173.8 116.6" enable-background="new 0 0 173.8 116.6" xml:space="preserve">
<g>
	<g>
		<path fill="#FFFFFF" d="M2.2,47.9c4,0,6.3-1.5,6.3-6.9V23.4C8.4,14.6,11.7,4,28.1,4h3.4v13.5h-2.3c-3.9,0-6.7,1.5-6.7,6.8v16.8
			c0,5-1.7,10.2-5.9,13.4c4.3,3.2,5.9,8.4,5.9,13.3v16.9c0,5.3,2.8,6.8,6.7,6.8h2.3v13.5h-3.4c-16.5,0-19.7-10.5-19.7-19.4V68
			c0-5.3-2.3-6.9-6.3-6.9H0V47.9H2.2z"/>
	</g>
</g>
<g>
	<g>
		<path fill="#FFFFFF" d="M171.5,61.3c-3.9,0-6.3,1.5-6.3,6.9v17.6c0,8.9-3.2,19.4-19.6,19.4h-3.4V91.6h2.2c4,0,6.7-1.5,6.7-6.8V68
			c0-5,1.6-10.2,5.9-13.4c-4.4-3.2-5.9-8.3-5.9-13.3V24.4c0-5.3-2.7-6.8-6.7-6.8h-2.2V4h3.4c16.4,0,19.6,10.5,19.6,19.4v17.7
			c0,5.3,2.4,6.9,6.3,6.9h2.3v13.2H171.5z"/>
	</g>
</g>
<g>
	<path fill="#FFFFFF" d="M140,42.4c-2.2-3.5-4.9-6-8.1-7.3c-5.2-2.2-13.7-0.8-21.2,3.9c-2.6,1.7-3.3,2.2-5.6,3.9l-0.2-0.2
		c3.1-3.1,6.7-6,8.6-8.4c9.7-11.9,10-22.6,1-29.7c-3.8-3-7.8-4.6-11.9-4.5C97.3,0.1,92,2.9,86.8,8.9C81.6,2.9,76.3,0.1,71,0
		C67-0.1,62.9,1.5,59.1,4.5c-9.1,7.1-8.8,17.8,1,29.7c2,2.4,5.8,5.6,8.9,8.7l-0.2,0.2c-2.3-1.8-3.1-2.4-5.9-4.1
		c-7.5-4.7-16-6.1-21.2-3.9c-3.2,1.4-5.9,3.9-8.1,7.3c-5,8.1-4,16.2,4.9,23.2c-6.6,8.6-5.7,16.5,0.9,23.1c7.6,7.5,17.7,7.5,30.6-1.6
		c7.4-5.2,11.2-10.3,13.3-13.8h0.4c0,0-3.3,18.6,2.5,28.1c2.6,4.3,6,8,9.7,11.4c1.5,1.4,5.2,3.9,5.2,3.9c0,0,6.4-6.7,6.5-6.7
		c-0.1,0-9.6-4.9-14.6-13c-4.5-7.3-3.6-20.3-3.4-23.7h0.4c2.2,3.5,6,8.6,13.3,13.8c12.9,9.1,23.1,9.2,30.6,1.6
		c6.6-6.6,7.6-14.6,0.9-23.1C144,58.6,145,50.4,140,42.4z"/>
</g>
</svg>
